<?xml version="1.0" encoding="utf-8"?>
<!-- Generator: Adobe Illustrator 16.0.0, SVG Export Plug-In . SVG Version: 6.00 Build 0)  -->
<!DOCTYPE svg PUBLIC "-//W3C//DTD SVG 1.1//EN" "http://www.w3.org/Graphics/SVG/1.1/DTD/svg11.dtd">
<svg version="1.1" id="Layer_1" xmlns="http://www.w3.org/2000/svg" xmlns:xlink="http://www.w3.org/1999/xlink" x="0px" y="0px"
	 width="100px" height="100px" viewBox="0 0 100 100" enable-background="new 0 0 100 100" xml:space="preserve">
<g>
	<g>
		<path fill="#FFFFFF" d="M39.228,30.117c-0.43,0-0.857-0.166-1.182-0.494c-0.642-0.653-0.636-1.704,0.016-2.348
			c2.068-2.036,2.339-4.729,0.728-7.204c-2.832-4.353-2.665-8.534,0.47-11.778c0.637-0.654,1.687-0.676,2.346-0.039
			c0.659,0.637,0.676,1.688,0.04,2.347c-0.748,0.773-3.021,3.127-0.073,7.66c2.462,3.78,1.997,8.247-1.179,11.377
			C40.07,29.958,39.649,30.117,39.228,30.117L39.228,30.117z"/>
	</g>
</g>
<g>
	<g>
		<path fill="#FFFFFF" d="M47.095,30.117c-0.43,0-0.858-0.166-1.182-0.494c-0.644-0.653-0.636-1.704,0.016-2.348
			c2.067-2.036,2.34-4.729,0.729-7.204c-2.832-4.353-2.666-8.534,0.467-11.778c0.639-0.654,1.689-0.676,2.347-0.039
			c0.659,0.637,0.675,1.688,0.04,2.347c-0.749,0.773-3.021,3.127-0.074,7.66c2.46,3.78,2,8.247-1.179,11.377
			C47.935,29.958,47.516,30.117,47.095,30.117L47.095,30.117z"/>
	</g>
</g>
<g>
	<g>
		<path fill="#FFFFFF" d="M54.961,30.117c-0.432,0-0.857-0.166-1.184-0.494c-0.644-0.653-0.637-1.704,0.017-2.348
			c2.065-2.036,2.339-4.729,0.728-7.204c-2.83-4.353-2.666-8.534,0.47-11.778c0.638-0.654,1.688-0.676,2.347-0.039
			c0.659,0.637,0.678,1.688,0.04,2.347c-0.749,0.773-3.021,3.127-0.073,7.66c2.463,3.78,1.997,8.247-1.179,11.377
			C55.801,29.958,55.381,30.117,54.961,30.117L54.961,30.117z"/>
	</g>
</g>
<path fill="#FFFFFF" d="M14.259,75.672v1.066c0,2.736,2.241,4.979,4.98,4.979h57.178c2.739,0,4.979-2.242,4.979-4.979v-1.066H14.259
	z"/>
<path fill="#FFFFFF" d="M82.578,36.114H72.99c-0.072,0-0.139,0.019-0.211,0.021c-0.068-0.005-0.135-0.021-0.205-0.021H21.173
	c-1.827,0-3.319,1.495-3.319,3.32v10.438c0,11.871,7.955,20.384,19.328,24.14H56.57c10.381-3.431,17.91-10.82,19.143-21.117h6.866
	c3.165,0,5.755-2.588,5.755-5.752v-5.275C88.334,38.705,85.744,36.114,82.578,36.114z M84.02,47.143c0,0.778-0.66,1.438-1.439,1.438
	h-6.686v-8.152h6.686c0.779,0,1.439,0.659,1.439,1.439V47.143z"/>
</svg>
