<?xml version="1.0" encoding="utf-8"?>
<!-- Generator: Adobe Illustrator 24.0.1, SVG Export Plug-In . SVG Version: 6.00 Build 0)  -->
<svg version="1.1" id="Layer_1" xmlns="http://www.w3.org/2000/svg" xmlns:xlink="http://www.w3.org/1999/xlink" x="0px" y="0px"
	 viewBox="0 0 102 103.6" style="enable-background:new 0 0 102 103.6;" xml:space="preserve">
<style type="text/css">
	.st0{display:none;fill:#FFFFFF;}
	.st1{fill:#FFFFFF;}
</style>
<g>
	<rect x="29" y="29" class="st0" width="44" height="15.6"/>
	<rect x="29" y="58" class="st0" width="44" height="15.6"/>
	<polygon class="st1" points="58,0 58,15.6 86.3,15.6 86.3,88 58,88 58,103.6 102,103.6 102,91.3 102,88 102,15.6 102,9.6 102,0 	
		"/>
	<polygon class="st1" points="15.6,15.6 44,15.6 44,0 0,0 0,9.6 0,15.6 0,88 0,91.3 0,103.6 44,103.6 44,88 15.6,88 	"/>
</g>
<g>
	<path class="st1" d="M41.3,58.2c1.2,0,1.4-0.5,1.4-1.1v-1c0-0.6-0.2-1.1-1.4-1.1h-6.2c-0.9,0-1.3-0.4-1.3-1.3v-3.9
		c0-0.9,0.4-1.3,1.3-1.3h3.8c1.2,0,1.4-0.5,1.4-1.1V47c0-0.6-0.2-1.1-1.4-1.1h-6.7c-0.9,0-1.3-0.4-1.3-1.3v-4.3
		c0-0.9,0.4-1.3,1.3-1.3h10.1c4,0,5.9,2,5.9,5.2v2.1c0,1.9-0.5,3.2-2.1,3.9c3.4,0.4,4.6,2.1,4.6,5.3v3.6c0,3.7-2.4,6-7,6H32.1
		c-0.9,0-1.3-0.4-1.3-1.3v-4.2c0-0.9,0.4-1.3,1.3-1.3H41.3z"/>
	<path class="st1" d="M55.2,65.1c-0.9,0-1.3-0.4-1.3-1.3v-4.4c0-0.9,0.4-1.3,1.3-1.3h4.1V46h-3.3c-0.9,0-1.3-0.4-1.3-1.3v-4.4
		c0-0.9,0.4-1.3,1.3-1.3h10.5c0.9,0,1.3,0.4,1.3,1.3v17.8h3.5c0.9,0,1.3,0.4,1.3,1.3v4.4c0,0.9-0.4,1.3-1.3,1.3H55.2z"/>
</g>
</svg>
