<?xml version="1.0" encoding="utf-8"?>
<!-- Generator: Adobe Illustrator 24.0.1, SVG Export Plug-In . SVG Version: 6.00 Build 0)  -->
<svg version="1.1" id="Layer_1" xmlns="http://www.w3.org/2000/svg" xmlns:xlink="http://www.w3.org/1999/xlink" x="0px" y="0px"
	 viewBox="0 0 125 127" style="enable-background:new 0 0 125 127;" xml:space="preserve">
<style type="text/css">
	.st0{display:none;fill:#FFFFFF;}
	.st1{fill:#FFFFFF;}
</style>
<g>
	<rect x="40.5" y="40.7" class="st0" width="44" height="15.6"/>
	<rect x="40.5" y="69.7" class="st0" width="44" height="15.6"/>
	<polygon class="st1" points="69.5,11.7 69.5,27.3 97.8,27.3 97.8,99.7 69.5,99.7 69.5,115.3 113.5,115.3 113.5,103 113.5,99.7 
		113.5,27.3 113.5,21.3 113.5,11.7 	"/>
	<polygon class="st1" points="27.1,27.3 55.5,27.3 55.5,11.7 11.5,11.7 11.5,21.3 11.5,27.3 11.5,99.7 11.5,103 11.5,115.3 
		55.5,115.3 55.5,99.7 27.1,99.7 	"/>
</g>
<path class="st1" d="M62.5,80.4c0,0-24.8,26-24.8,22V10.6c0-4,3.2-7.2,7.2-7.2H80c4,0,7.2,3.2,7.2,7.2v91.7
	C87.3,106.3,62.5,80.4,62.5,80.4z"/>
</svg>
