<?xml version="1.0" encoding="utf-8"?>
<!-- Generator: Adobe Illustrator 24.0.1, SVG Export Plug-In . SVG Version: 6.00 Build 0)  -->
<svg version="1.1" id="Layer_1" xmlns="http://www.w3.org/2000/svg" xmlns:xlink="http://www.w3.org/1999/xlink" x="0px" y="0px"
	 viewBox="0 0 598.5 119.7" style="enable-background:new 0 0 598.5 119.7;" xml:space="preserve">
<style type="text/css">
	.st0{fill:#ED1849;}
</style>
<title>mmf-logo</title>
<path class="st0" d="M59.8,0C26.8,0,0,26.8,0,59.8s26.8,59.8,59.8,59.8s59.8-26.8,59.8-59.8l0,0C119.6,26.8,92.9,0,59.8,0z
	 M59.8,14.3c25.4,0,46.2,18,46.3,46H81.7L59.9,28.6L37.1,60.3H13.5C13.7,32.3,34.4,14.3,59.8,14.3z M28.9,94.6l25.3-34.3h10.5
	l26,34.3C73.2,110.5,46.5,110.5,28.9,94.6z"/>
<path class="st0" d="M168.9,55.1v35.7h-15V27.6h16.5l12.7,29.5l11.7-29.5H212v63.2h-15.3V54.4L186,79.5h-6.4L168.9,55.1z"/>
<path class="st0" d="M238.1,90.8H222V27.6h16.2L238.1,90.8L238.1,90.8z"/>
<path class="st0" d="M262.5,56.1v34.7h-15V27.6h15l18.9,34.8V27.6h15v63.2h-15.5L262.5,56.1z"/>
<path class="st0" d="M320.9,55.1v35.7h-15V27.6h16.5l12.8,29.5l11.7-29.5H364v63.2h-15.3V54.4L338,79.5h-6.4L320.9,55.1z"/>
<path class="st0" d="M420.8,90.8h-16.3V75.1h-14.3v15.7h-16.3V35c-0.2-3.9,2.7-7.2,6.6-7.4c0.3,0,0.5,0,0.8,0h32.1
	c3.9-0.2,7.2,2.7,7.4,6.6c0,0.3,0,0.5,0,0.8V90.8z M404.5,61.4v-19c-0.1-1.1-1-1.9-2.1-1.9c0,0-0.1,0-0.1,0h-10.1
	c-1-0.1-1.9,0.7-2,1.8c0,0,0,0,0,0.1v19H404.5L404.5,61.4z"/>
<path class="st0" d="M443.4,59.3l-17.9-31.6h18.1l9.6,18.1l8-18.1h17.5l-17.5,32.7l17.2,30.5h-18l-9.3-17.4l-9,17.4H425L443.4,59.3z
	"/>
<path class="st0" d="M484.2,27.6h40.1v13.6h-23.9v14.3H521V69h-20.6v21.8h-16.2V27.6z"/>
<path class="st0" d="M547.6,90.8h-16.2V27.6h16.2V90.8z"/>
<path class="st0" d="M598.5,27.6v13.7h-14.3v49.5h-16.3V41.3h-14.3V27.6H598.5L598.5,27.6z"/>
</svg>
