<?xml version="1.0" encoding="utf-8"?>
<!-- Generator: Adobe Illustrator 24.0.1, SVG Export Plug-In . SVG Version: 6.00 Build 0)  -->
<svg version="1.1" id="Layer_1" xmlns="http://www.w3.org/2000/svg" xmlns:xlink="http://www.w3.org/1999/xlink" x="0px" y="0px"
	 viewBox="0 0 125 127" style="enable-background:new 0 0 125 127;" xml:space="preserve">
<style type="text/css">
	.st0{display:none;fill:#FFFFFF;}
	.st1{fill:#FFFFFF;}
</style>
<g>
	<rect x="40.5" y="40.7" class="st0" width="44" height="15.6"/>
	<rect x="40.5" y="69.7" class="st0" width="44" height="15.6"/>
	<polygon class="st1" points="78.4,11.7 78.4,27.3 97.8,27.3 97.8,99.7 87.5,99.7 87.5,115.3 113.5,115.3 113.5,103 113.5,99.7 
		113.5,27.3 113.5,21.3 113.5,11.7 	"/>
	<polygon class="st1" points="27.1,27.3 47.6,27.3 47.6,11.7 11.5,11.7 11.5,21.3 11.5,27.3 11.5,99.7 11.5,103 11.5,115.3 
		37.8,115.3 37.8,99.7 27.1,99.7 	"/>
</g>
<path class="st1" d="M82.2,9.3c0-3.6-2.9-6.6-6.6-6.6H49.4c-3.6,0-6.6,2.9-6.6,6.6v26.3c0,3.2,2.3,5.9,5.4,6.5L36,61.2l6,30.2h-2.6
	c-3.6,0-6.6,2.9-6.6,6.6v3.3v16.4c0,3.6,2.9,6.6,6.6,6.6h3.3h39.4h3.3c3.6,0,6.6-2.9,6.6-6.6v-16.4V98c0-3.6-2.9-6.6-6.6-6.6h-2.6
	l6-30.2L76.8,42c3.1-0.5,5.4-3.3,5.4-6.5V9.3z M49.4,9.3h26.3v26.3h-3l-10.2-16l-10.2,16h-3V9.3z M85.5,117.7h-3.3H42.8h-3.3v-6.6
	h3.3h39.4h3.3V117.7z M85.5,98v3.3v3.3h-3.3H42.8h-3.3v-3.3V98H85.5z M82,62.5l-5.8,28.9H48.8L43,62.5L59.2,37v25.8
	c-0.5,0.3-0.9,0.6-1.2,1c-0.1,0.1-0.2,0.2-0.3,0.3c-0.3,0.3-0.5,0.6-0.7,0.9c0,0.1-0.1,0.1-0.2,0.2c0,0.1-0.1,0.1-0.1,0.2
	c-0.1,0.2-0.2,0.4-0.3,0.6c-0.1,0.2-0.2,0.4-0.2,0.6c-0.1,0.2-0.1,0.4-0.1,0.6c0,0.2-0.1,0.4-0.1,0.6c0,0.2,0,0.4,0,0.6
	c0,0.2,0,0.4,0,0.6c0,0.2,0.1,0.4,0.1,0.6c0,0.2,0.1,0.4,0.1,0.6c0.1,0.2,0.1,0.4,0.2,0.6c0.1,0.2,0.2,0.4,0.3,0.6
	c0,0.1,0.1,0.1,0.1,0.2c0.1,0.1,0.1,0.2,0.2,0.3c0.1,0.2,0.3,0.4,0.4,0.6c0.1,0.2,0.3,0.3,0.4,0.5s0.3,0.3,0.5,0.4
	c0.2,0.2,0.4,0.3,0.6,0.4c0.1,0.1,0.2,0.2,0.3,0.2c0.1,0,0.1,0.1,0.2,0.1c0.2,0.1,0.4,0.2,0.6,0.3c0.2,0.1,0.4,0.2,0.6,0.2
	c0.2,0.1,0.4,0.1,0.6,0.1c0.2,0,0.4,0.1,0.6,0.1c0.2,0,0.4,0,0.6,0c0.2,0,0.4,0,0.6,0c0.2,0,0.4-0.1,0.6-0.1c0.2,0,0.4-0.1,0.6-0.1
	c0.2-0.1,0.4-0.1,0.6-0.2c0.2-0.1,0.4-0.2,0.6-0.3c0.1,0,0.1-0.1,0.2-0.1c0.1-0.1,0.2-0.1,0.3-0.2c0.2-0.1,0.4-0.3,0.6-0.4
	c0.2-0.1,0.3-0.3,0.5-0.4c0.1-0.1,0.3-0.3,0.4-0.5c0.2-0.2,0.3-0.4,0.4-0.6c0.1-0.1,0.2-0.2,0.2-0.3c0-0.1,0.1-0.1,0.1-0.2
	c0.1-0.2,0.2-0.4,0.3-0.6c0.1-0.2,0.2-0.4,0.2-0.6c0.1-0.2,0.1-0.4,0.1-0.6c0-0.2,0.1-0.4,0.1-0.6c0-0.2,0-0.4,0-0.6
	c0-0.2,0-0.4,0-0.6c0-0.2-0.1-0.4-0.1-0.6c0-0.2-0.1-0.4-0.1-0.6c-0.1-0.2-0.1-0.4-0.2-0.6c-0.1-0.2-0.2-0.4-0.3-0.6
	c0-0.1-0.1-0.1-0.1-0.2c0-0.1-0.1-0.1-0.2-0.2c-0.2-0.3-0.4-0.6-0.7-0.9c-0.1-0.1-0.2-0.2-0.3-0.3c-0.4-0.4-0.8-0.7-1.2-1V37
	L82,62.5z"/>
</svg>
