<svg width="126" height="127" viewBox="0 0 126 127" fill="none" xmlns="http://www.w3.org/2000/svg">
<g clip-path="url(#clip0)">
<path d="M21 60.0351C20.077 60.0351 19.1748 59.7642 18.4073 59.2565C17.6399 58.7489 17.0418 58.0274 16.6886 57.1832C16.3354 56.339 16.2429 55.4101 16.423 54.514C16.6031 53.6178 17.0475 52.7946 17.7002 52.1485C18.3528 51.5024 19.1843 51.0624 20.0896 50.8842C20.9948 50.7059 21.9331 50.7974 22.7859 51.1471C23.6386 51.4967 24.3674 52.0889 24.8802 52.8486C25.393 53.6083 25.6667 54.5015 25.6667 55.4153C25.6667 56.6405 25.175 57.8156 24.2998 58.682C23.4247 59.5484 22.2377 60.0351 21 60.0351Z" fill="#CDE7E7"/>
<path d="M12.39 74.1026C11.6389 73.202 10.6701 72.5039 9.57356 72.0732C8.47701 71.6425 7.28829 71.4932 6.11782 71.639C4.94736 71.7849 3.83311 72.2212 2.87858 72.9075C1.92405 73.5938 1.16021 74.5077 0.657999 75.5645C0.155789 76.6213 -0.0684931 77.7865 0.00598541 78.9521C0.080464 80.1176 0.451287 81.2456 1.08401 82.2313C1.71673 83.217 2.59083 84.0284 3.62511 84.5901C4.65938 85.1518 5.82029 85.4457 6.99999 85.4444C8.32706 85.4429 9.62636 85.0679 10.7464 84.3633C11.8665 83.6587 12.7611 82.6534 13.326 81.4646C13.891 80.2759 14.103 78.9526 13.9372 77.6491C13.7715 76.3457 13.2349 75.1157 12.39 74.1026V74.1026ZM6.99999 80.8245C6.38115 80.8245 5.78766 80.5811 5.35008 80.1479C4.91249 79.7147 4.66666 79.1272 4.66666 78.5146C4.66666 77.9019 4.91249 77.3144 5.35008 76.8812C5.78766 76.448 6.38115 76.2046 6.99999 76.2046C7.61883 76.2046 8.21232 76.448 8.64991 76.8812C9.08749 77.3144 9.33332 77.9019 9.33332 78.5146C9.33332 79.1272 9.08749 79.7147 8.64991 80.1479C8.21232 80.5811 7.61883 80.8245 6.99999 80.8245V80.8245Z" fill="#CDE7E7"/>
<path opacity="0.2" d="M9.33334 78.5146C9.33334 79.1272 9.08751 79.7147 8.64992 80.1479C8.21234 80.5811 7.61884 80.8245 7.00001 80.8245C6.38117 80.8245 5.78767 80.5811 5.35009 80.1479C4.9125 79.7147 4.66667 79.1272 4.66667 78.5146C4.66667 77.9019 4.9125 77.3144 5.35009 76.8812C5.78767 76.448 6.38117 76.2047 7.00001 76.2047C7.61884 76.2047 8.21234 76.448 8.64992 76.8812C9.08751 77.3144 9.33334 77.9019 9.33334 78.5146Z" fill="#CDE7E7"/>
<path d="M46.6667 69.2748C45.7437 69.2748 44.8414 69.0039 44.074 68.4962C43.3066 67.9886 42.7084 67.2671 42.3552 66.4229C42.002 65.5787 41.9096 64.6498 42.0897 63.7537C42.2697 62.8575 42.7142 62.0343 43.3668 61.3882C44.0195 60.7421 44.851 60.3021 45.7562 60.1239C46.6615 59.9456 47.5998 60.0371 48.4525 60.3868C49.3052 60.7364 50.0341 61.3286 50.5469 62.0883C51.0596 62.848 51.3333 63.7412 51.3333 64.655C51.3333 65.8802 50.8417 67.0553 49.9665 67.9217C49.0913 68.7881 47.9043 69.2748 46.6667 69.2748Z" fill="#CDE7E7"/>
<path d="M82.5767 60.4971C81.8602 59.5513 80.9111 58.8028 79.8199 58.3226C78.7287 57.8424 77.5315 57.6466 76.3422 57.7537C75.153 57.8609 74.0112 58.2675 73.0254 58.9348C72.0397 59.6021 71.2428 60.508 70.7105 61.5662C70.1782 62.6245 69.9283 63.8 69.9844 64.9809C70.0406 66.1618 70.401 67.3088 71.0314 68.3129C71.6617 69.317 72.5411 70.1448 73.5858 70.7174C74.6305 71.2901 75.8058 71.5887 77 71.5848C78.298 71.5805 79.5692 71.219 80.6717 70.5407C81.7741 69.8624 82.6644 68.894 83.2429 67.7438C83.8215 66.5935 84.0655 65.3066 83.9479 64.0269C83.8302 62.7472 83.3555 61.5251 82.5767 60.4971ZM77 66.9649C76.3812 66.9649 75.7877 66.7215 75.3501 66.2883C74.9125 65.8551 74.6667 65.2676 74.6667 64.655C74.6667 64.0423 74.9125 63.4548 75.3501 63.0216C75.7877 62.5884 76.3812 62.345 77 62.345C77.6188 62.345 78.2123 62.5884 78.6499 63.0216C79.0875 63.4548 79.3333 64.0423 79.3333 64.655C79.3333 65.2676 79.0875 65.8551 78.6499 66.2883C78.2123 66.7215 77.6188 66.9649 77 66.9649Z" fill="#CDE7E7"/>
<path opacity="0.2" d="M77 66.9649C76.3812 66.9649 75.7877 66.7215 75.3501 66.2883C74.9125 65.8551 74.6667 65.2676 74.6667 64.655C74.6667 64.0423 74.9125 63.4548 75.3501 63.0216C75.7877 62.5884 76.3812 62.345 77 62.345C77.6188 62.345 78.2123 62.5884 78.6499 63.0216C79.0875 63.4548 79.3333 64.0423 79.3333 64.655C79.3333 65.2676 79.0875 65.8551 78.6499 66.2883C78.2123 66.7215 77.6188 66.9649 77 66.9649Z" fill="#CDE7E7"/>
<path d="M105 80.8245C104.077 80.8245 103.175 80.5536 102.407 80.0459C101.64 79.5383 101.042 78.8168 100.689 77.9726C100.335 77.1284 100.243 76.1995 100.423 75.3033C100.603 74.4072 101.048 73.584 101.7 72.9379C102.353 72.2918 103.184 71.8518 104.09 71.6735C104.995 71.4953 105.933 71.5868 106.786 71.9364C107.639 72.2861 108.367 72.8783 108.88 73.638C109.393 74.3977 109.667 75.2909 109.667 76.2046C109.667 77.4299 109.175 78.605 108.3 79.4714C107.425 80.3378 106.238 80.8245 105 80.8245Z" fill="#CDE7E7"/>
<path d="M116.667 41.5556C115.744 41.5556 114.841 41.2847 114.074 40.7771C113.307 40.2694 112.708 39.5479 112.355 38.7037C112.002 37.8596 111.91 36.9307 112.09 36.0345C112.27 35.1383 112.714 34.3151 113.367 33.669C114.019 33.0229 114.851 32.5829 115.756 32.4047C116.661 32.2264 117.6 32.3179 118.453 32.6676C119.305 33.0173 120.034 33.6094 120.547 34.3691C121.06 35.1289 121.333 36.0221 121.333 36.9358C121.333 38.161 120.842 39.3361 119.967 40.2025C119.091 41.0689 117.904 41.5556 116.667 41.5556Z" fill="#CDE7E7"/>
<path d="M100.333 34.6259C99.4103 34.6259 98.5081 34.3549 97.7407 33.8473C96.9732 33.3396 96.3751 32.6181 96.0219 31.7739C95.6687 30.9298 95.5763 30.0009 95.7563 29.1047C95.9364 28.2085 96.3808 27.3854 97.0335 26.7393C97.6861 26.0932 98.5177 25.6532 99.4229 25.4749C100.328 25.2967 101.266 25.3881 102.119 25.7378C102.972 26.0875 103.701 26.6796 104.214 27.4393C104.726 28.1991 105 29.0923 105 30.006C105 31.2313 104.508 32.4063 103.633 33.2727C102.758 34.1391 101.571 34.6259 100.333 34.6259Z" fill="#CDE7E7"/>
<path d="M9.33334 39.2457C9.33334 38.6331 9.08751 38.0456 8.64992 37.6124C8.21234 37.1792 7.61884 36.9358 7.00001 36.9358C6.38117 36.9358 5.78767 36.6924 5.35009 36.2592C4.9125 35.826 4.66667 35.2385 4.66667 34.6259C4.66667 34.0132 4.9125 33.4257 5.35009 32.9925C5.78767 32.5593 6.38117 32.3159 7.00001 32.3159C7.61884 32.3159 8.21234 32.0726 8.64992 31.6394C9.08751 31.2062 9.33334 30.6186 9.33334 30.006C9.33334 29.3934 9.57917 28.8058 10.0168 28.3726C10.4543 27.9394 11.0478 27.6961 11.6667 27.6961C12.2855 27.6961 12.879 27.9394 13.3166 28.3726C13.7542 28.8058 14 29.3934 14 30.006C14 30.6186 14.2458 31.2062 14.6834 31.6394C15.121 32.0726 15.7145 32.3159 16.3333 32.3159C16.9522 32.3159 17.5457 32.5593 17.9833 32.9925C18.4208 33.4257 18.6667 34.0132 18.6667 34.6259C18.6667 35.2385 18.4208 35.826 17.9833 36.2592C17.5457 36.6924 16.9522 36.9358 16.3333 36.9358C15.7145 36.9358 15.121 37.1792 14.6834 37.6124C14.2458 38.0456 14 38.6331 14 39.2457C14 39.8584 13.7542 40.4459 13.3166 40.8791C12.879 41.3123 12.2855 41.5557 11.6667 41.5557C11.0478 41.5557 10.4543 41.3123 10.0168 40.8791C9.57917 40.4459 9.33334 39.8584 9.33334 39.2457Z" fill="#CDE7E7"/>
<path d="M74.6667 34.6259C74.6667 34.0132 74.4208 33.4257 73.9833 32.9925C73.5457 32.5593 72.9522 32.3159 72.3333 32.3159C71.7145 32.3159 71.121 32.0726 70.6834 31.6394C70.2458 31.2062 70 30.6186 70 30.006C70 29.3934 70.2458 28.8058 70.6834 28.3726C71.121 27.9394 71.7145 27.6961 72.3333 27.6961C72.9522 27.6961 73.5457 27.4527 73.9833 27.0195C74.4208 26.5863 74.6667 25.9988 74.6667 25.3861C74.6667 24.7735 74.9125 24.186 75.3501 23.7528C75.7877 23.3196 76.3812 23.0762 77 23.0762C77.6188 23.0762 78.2123 23.3196 78.6499 23.7528C79.0875 24.186 79.3333 24.7735 79.3333 25.3861C79.3333 25.9988 79.5792 26.5863 80.0167 27.0195C80.4543 27.4527 81.0478 27.6961 81.6667 27.6961C82.2855 27.6961 82.879 27.9394 83.3166 28.3726C83.7542 28.8058 84 29.3934 84 30.006C84 30.6186 83.7542 31.2062 83.3166 31.6394C82.879 32.0726 82.2855 32.3159 81.6667 32.3159C81.0478 32.3159 80.4543 32.5593 80.0167 32.9925C79.5792 33.4257 79.3333 34.0132 79.3333 34.6259C79.3333 35.2385 79.0875 35.826 78.6499 36.2592C78.2123 36.6924 77.6188 36.9358 77 36.9358C76.3812 36.9358 75.7877 36.6924 75.3501 36.2592C74.9125 35.826 74.6667 35.2385 74.6667 34.6259Z" fill="#CDE7E7"/>
<path d="M70 90.0642C70 89.4516 69.7542 88.864 69.3166 88.4308C68.879 87.9976 68.2855 87.7543 67.6667 87.7543C67.0478 87.7543 66.4543 87.5109 66.0167 87.0777C65.5792 86.6445 65.3333 86.057 65.3333 85.4443C65.3333 84.8317 65.5792 84.2442 66.0167 83.811C66.4543 83.3778 67.0478 83.1344 67.6667 83.1344C68.2855 83.1344 68.879 82.891 69.3166 82.4578C69.7542 82.0246 70 81.4371 70 80.8245C70 80.2118 70.2458 79.6243 70.6834 79.1911C71.121 78.7579 71.7145 78.5145 72.3333 78.5145C72.9522 78.5145 73.5457 78.7579 73.9832 79.1911C74.4208 79.6243 74.6667 80.2118 74.6667 80.8245C74.6667 81.4371 74.9125 82.0246 75.3501 82.4578C75.7877 82.891 76.3812 83.1344 77 83.1344C77.6188 83.1344 78.2123 83.3778 78.6499 83.811C79.0875 84.2442 79.3333 84.8317 79.3333 85.4443C79.3333 86.057 79.0875 86.6445 78.6499 87.0777C78.2123 87.5109 77.6188 87.7543 77 87.7543C76.3812 87.7543 75.7877 87.9976 75.3501 88.4308C74.9125 88.864 74.6667 89.4516 74.6667 90.0642C74.6667 90.6768 74.4208 91.2644 73.9832 91.6976C73.5457 92.1308 72.9522 92.3741 72.3333 92.3741C71.7145 92.3741 71.121 92.1308 70.6834 91.6976C70.2458 91.2644 70 90.6768 70 90.0642Z" fill="#CDE7E7"/>
<path d="M126 64.655C126 65.2676 125.754 65.8551 125.317 66.2883C124.879 66.7215 124.286 66.9649 123.667 66.9649C123.048 66.9649 122.454 66.7215 122.017 66.2883C121.579 65.8551 121.333 65.2676 121.333 64.655C121.333 64.0423 121.579 63.4548 122.017 63.0216C122.454 62.5884 123.048 62.345 123.667 62.345C124.286 62.345 124.879 62.5884 125.317 63.0216C125.754 63.4548 126 64.0423 126 64.655Z" fill="#CDE7E7"/>
<path d="M9.33334 50.7954C9.33334 51.408 9.08751 51.9956 8.64992 52.4288C8.21234 52.862 7.61884 53.1053 7.00001 53.1053C6.38117 53.1053 5.78767 52.862 5.35009 52.4288C4.9125 51.9956 4.66667 51.408 4.66667 50.7954C4.66667 50.1828 4.9125 49.5952 5.35009 49.162C5.78767 48.7288 6.38117 48.4855 7.00001 48.4855C7.61884 48.4855 8.21234 48.7288 8.64992 49.162C9.08751 49.5952 9.33334 50.1828 9.33334 50.7954Z" fill="#CDE7E7"/>
<path d="M28 113.164C28 113.776 27.7542 114.364 27.3166 114.797C26.879 115.23 26.2855 115.473 25.6667 115.473C25.0478 115.473 24.4543 115.23 24.0168 114.797C23.5792 114.364 23.3333 113.776 23.3333 113.164C23.3333 112.551 23.5792 111.963 24.0168 111.53C24.4543 111.097 25.0478 110.854 25.6667 110.854C26.2855 110.854 26.879 111.097 27.3166 111.53C27.7542 111.963 28 112.551 28 113.164Z" fill="#CDE7E7"/>
<path d="M65.3333 124.713C65.3333 125.326 65.0875 125.913 64.6499 126.347C64.2123 126.78 63.6188 127.023 63 127.023C62.3812 127.023 61.7877 126.78 61.3501 126.347C60.9125 125.913 60.6667 125.326 60.6667 124.713C60.6667 124.101 60.9125 123.513 61.3501 123.08C61.7877 122.647 62.3812 122.403 63 122.403C63.6188 122.403 64.2123 122.647 64.6499 123.08C65.0875 123.513 65.3333 124.101 65.3333 124.713Z" fill="#CDE7E7"/>
<path d="M100.333 53.1053C100.333 53.718 100.088 54.3055 99.6499 54.7387C99.2123 55.1719 98.6188 55.4153 98 55.4153C97.3812 55.4153 96.7877 55.1719 96.3501 54.7387C95.9125 54.3055 95.6667 53.718 95.6667 53.1053C95.6667 52.4927 95.9125 51.9052 96.3501 51.472C96.7877 51.0388 97.3812 50.7954 98 50.7954C98.6188 50.7954 99.2123 51.0388 99.6499 51.472C100.088 51.9052 100.333 52.4927 100.333 53.1053Z" fill="#CDE7E7"/>
<path d="M60.6667 50.7954C60.6667 51.408 60.4208 51.9956 59.9833 52.4288C59.5457 52.862 58.9522 53.1053 58.3333 53.1053C57.7145 53.1053 57.121 52.862 56.6834 52.4288C56.2458 51.9956 56 51.408 56 50.7954C56 50.1828 56.2458 49.5952 56.6834 49.162C57.121 48.7288 57.7145 48.4855 58.3333 48.4855C58.9522 48.4855 59.5457 48.7288 59.9833 49.162C60.4208 49.5952 60.6667 50.1828 60.6667 50.7954Z" fill="#CDE7E7"/>
<path d="M51.3333 99.3039C51.3333 99.9166 51.0875 100.504 50.6499 100.937C50.2123 101.37 49.6188 101.614 49 101.614C48.3812 101.614 47.7877 101.37 47.3501 100.937C46.9125 100.504 46.6667 99.9166 46.6667 99.3039C46.6667 98.6913 46.9125 98.1038 47.3501 97.6706C47.7877 97.2374 48.3812 96.994 49 96.994C49.6188 96.994 50.2123 97.2374 50.6499 97.6706C51.0875 98.1038 51.3333 98.6913 51.3333 99.3039Z" fill="#CDE7E7"/>
<path d="M93.3333 13.8365C93.3333 14.4491 93.0875 15.0367 92.6499 15.4699C92.2123 15.903 91.6188 16.1464 91 16.1464C90.3812 16.1464 89.7877 15.903 89.3501 15.4699C88.9125 15.0367 88.6667 14.4491 88.6667 13.8365C88.6667 13.2239 88.9125 12.6363 89.3501 12.2031C89.7877 11.7699 90.3812 11.5266 91 11.5266C91.6188 11.5266 92.2123 11.7699 92.6499 12.2031C93.0875 12.6363 93.3333 13.2239 93.3333 13.8365V13.8365Z" fill="#CDE7E7"/>
<path d="M84 101.614C84 102.226 83.7542 102.814 83.3166 103.247C82.879 103.68 82.2855 103.924 81.6667 103.924C81.0478 103.924 80.4543 103.68 80.0167 103.247C79.5792 102.814 79.3333 102.226 79.3333 101.614C79.3333 101.001 79.5792 100.414 80.0167 99.9805C80.4543 99.5473 81.0478 99.3039 81.6667 99.3039C82.2855 99.3039 82.879 99.5473 83.3166 99.9805C83.7542 100.414 84 101.001 84 101.614Z" fill="#CDE7E7"/>
<path d="M119 90.0642C119 90.6768 118.754 91.2644 118.317 91.6976C117.879 92.1308 117.286 92.3741 116.667 92.3741C116.048 92.3741 115.454 92.1308 115.017 91.6976C114.579 91.2644 114.333 90.6768 114.333 90.0642C114.333 89.4516 114.579 88.864 115.017 88.4308C115.454 87.9977 116.048 87.7543 116.667 87.7543C117.286 87.7543 117.879 87.9977 118.317 88.4308C118.754 88.864 119 89.4516 119 90.0642Z" fill="#CDE7E7"/>
<path d="M39.6667 27.6961C39.6667 28.3087 39.4208 28.8962 38.9832 29.3294C38.5457 29.7626 37.9522 30.006 37.3333 30.006C36.7145 30.006 36.121 29.7626 35.6834 29.3294C35.2458 28.8962 35 28.3087 35 27.6961C35 27.0834 35.2458 26.4959 35.6834 26.0627C36.121 25.6295 36.7145 25.3861 37.3333 25.3861C37.9522 25.3861 38.5457 25.6295 38.9832 26.0627C39.4208 26.4959 39.6667 27.0834 39.6667 27.6961V27.6961Z" fill="#CDE7E7"/>
<path d="M100.333 101.614V99.3039C100.333 98.6913 100.579 98.1038 101.017 97.6706C101.454 97.2374 102.048 96.994 102.667 96.994C103.286 96.994 103.879 97.2374 104.317 97.6706C104.754 98.1038 105 98.6913 105 99.3039V101.614C105 102.227 104.754 102.814 104.317 103.247C103.879 103.68 103.286 103.924 102.667 103.924C102.048 103.924 101.454 103.68 101.017 103.247C100.579 102.814 100.333 102.227 100.333 101.614Z" fill="#CDE7E7"/>
<path d="M109.667 108.544H107.333C106.714 108.544 106.121 108.3 105.683 107.867C105.246 107.434 105 106.846 105 106.234C105 105.621 105.246 105.034 105.683 104.6C106.121 104.167 106.714 103.924 107.333 103.924H109.667C110.286 103.924 110.879 104.167 111.317 104.6C111.754 105.034 112 105.621 112 106.234C112 106.846 111.754 107.434 111.317 107.867C110.879 108.3 110.286 108.544 109.667 108.544Z" fill="#CDE7E7"/>
<path d="M98 108.544H95.6667C95.0478 108.544 94.4543 108.3 94.0167 107.867C93.5792 107.434 93.3333 106.846 93.3333 106.234C93.3333 105.621 93.5792 105.034 94.0167 104.6C94.4543 104.167 95.0478 103.924 95.6667 103.924H98C98.6188 103.924 99.2123 104.167 99.6499 104.6C100.088 105.034 100.333 105.621 100.333 106.234C100.333 106.846 100.088 107.434 99.6499 107.867C99.2123 108.3 98.6188 108.544 98 108.544Z" fill="#CDE7E7"/>
<path d="M100.333 113.164V110.854C100.333 110.241 100.579 109.653 101.017 109.22C101.454 108.787 102.048 108.544 102.667 108.544C103.286 108.544 103.879 108.787 104.317 109.22C104.754 109.653 105 110.241 105 110.854V113.164C105 113.776 104.754 114.364 104.317 114.797C103.879 115.23 103.286 115.473 102.667 115.473C102.048 115.473 101.454 115.23 101.017 114.797C100.579 114.364 100.333 113.776 100.333 113.164Z" fill="#CDE7E7"/>
<path d="M25.6667 83.1344V80.8245C25.6667 80.2118 25.9125 79.6243 26.3501 79.1911C26.7877 78.7579 27.3812 78.5145 28 78.5145C28.6188 78.5145 29.2123 78.7579 29.6499 79.1911C30.0875 79.6243 30.3333 80.2118 30.3333 80.8245V83.1344C30.3333 83.747 30.0875 84.3346 29.6499 84.7678C29.2123 85.201 28.6188 85.4443 28 85.4443C27.3812 85.4443 26.7877 85.201 26.3501 84.7678C25.9125 84.3346 25.6667 83.747 25.6667 83.1344Z" fill="#CDE7E7"/>
<path d="M35 90.0642H32.6667C32.0478 90.0642 31.4543 89.8208 31.0168 89.3876C30.5792 88.9545 30.3333 88.3669 30.3333 87.7543C30.3333 87.1416 30.5792 86.5541 31.0168 86.1209C31.4543 85.6877 32.0478 85.4444 32.6667 85.4444H35C35.6188 85.4444 36.2123 85.6877 36.6499 86.1209C37.0875 86.5541 37.3333 87.1416 37.3333 87.7543C37.3333 88.3669 37.0875 88.9545 36.6499 89.3876C36.2123 89.8208 35.6188 90.0642 35 90.0642Z" fill="#CDE7E7"/>
<path d="M23.3333 90.0642H21C20.3812 90.0642 19.7877 89.8208 19.3501 89.3876C18.9125 88.9545 18.6667 88.3669 18.6667 87.7543C18.6667 87.1416 18.9125 86.5541 19.3501 86.1209C19.7877 85.6877 20.3812 85.4444 21 85.4444H23.3333C23.9522 85.4444 24.5457 85.6877 24.9833 86.1209C25.4208 86.5541 25.6667 87.1416 25.6667 87.7543C25.6667 88.3669 25.4208 88.9545 24.9833 89.3876C24.5457 89.8208 23.9522 90.0642 23.3333 90.0642Z" fill="#CDE7E7"/>
<path d="M25.6667 94.6841V92.3741C25.6667 91.7615 25.9125 91.174 26.3501 90.7408C26.7877 90.3076 27.3812 90.0642 28 90.0642C28.6188 90.0642 29.2123 90.3076 29.6499 90.7408C30.0875 91.174 30.3333 91.7615 30.3333 92.3741V94.6841C30.3333 95.2967 30.0875 95.8843 29.6499 96.3175C29.2123 96.7507 28.6188 96.994 28 96.994C27.3812 96.994 26.7877 96.7507 26.3501 96.3175C25.9125 95.8843 25.6667 95.2967 25.6667 94.6841Z" fill="#CDE7E7"/>
<path d="M53.6667 4.59676V2.28683C53.6667 1.6742 53.9125 1.08666 54.3501 0.653462C54.7877 0.220266 55.3812 -0.0231018 56 -0.0231018C56.6188 -0.0231018 57.2123 0.220266 57.6499 0.653462C58.0875 1.08666 58.3333 1.6742 58.3333 2.28683V4.59676C58.3333 5.20939 58.0875 5.79693 57.6499 6.23013C57.2123 6.66332 56.6188 6.90669 56 6.90669C55.3812 6.90669 54.7877 6.66332 54.3501 6.23013C53.9125 5.79693 53.6667 5.20939 53.6667 4.59676Z" fill="#CDE7E7"/>
<path d="M63 11.5266H60.6667C60.0478 11.5266 59.4543 11.2832 59.0168 10.85C58.5792 10.4168 58.3333 9.82927 58.3333 9.21664C58.3333 8.60401 58.5792 8.01647 59.0168 7.58327C59.4543 7.15008 60.0478 6.90671 60.6667 6.90671H63C63.6188 6.90671 64.2123 7.15008 64.6499 7.58327C65.0875 8.01647 65.3333 8.60401 65.3333 9.21664C65.3333 9.82927 65.0875 10.4168 64.6499 10.85C64.2123 11.2832 63.6188 11.5266 63 11.5266Z" fill="#CDE7E7"/>
<path d="M51.3333 11.5266H49C48.3812 11.5266 47.7877 11.2832 47.3501 10.85C46.9125 10.4168 46.6667 9.82927 46.6667 9.21664C46.6667 8.60401 46.9125 8.01647 47.3501 7.58327C47.7877 7.15008 48.3812 6.90671 49 6.90671H51.3333C51.9522 6.90671 52.5457 7.15008 52.9832 7.58327C53.4208 8.01647 53.6667 8.60401 53.6667 9.21664C53.6667 9.82927 53.4208 10.4168 52.9832 10.85C52.5457 11.2832 51.9522 11.5266 51.3333 11.5266Z" fill="#CDE7E7"/>
<path d="M53.6667 16.1464V13.8365C53.6667 13.2239 53.9125 12.6363 54.3501 12.2031C54.7877 11.7699 55.3812 11.5266 56 11.5266C56.6188 11.5266 57.2123 11.7699 57.6499 12.2031C58.0875 12.6363 58.3333 13.2239 58.3333 13.8365V16.1464C58.3333 16.759 58.0875 17.3466 57.6499 17.7798C57.2123 18.213 56.6188 18.4563 56 18.4563C55.3812 18.4563 54.7877 18.213 54.3501 17.7798C53.9125 17.3466 53.6667 16.759 53.6667 16.1464Z" fill="#CDE7E7"/>
</g>
<circle cx="64.5" cy="58.5" r="31.5" fill="#D92D27"/>
<g clip-path="url(#clip1)">
<rect x="49.0758" y="41.9982" width="46.9252" height="3.71541" transform="rotate(45 49.0758 41.9982)" fill="white"/>
<path d="M76.6268 72.9687C49.2763 45.6182 50.8946 46.9744 50.1652 47.0541C49.4359 47.1339 49.2763 47.5328 48.7407 48.3077C39.3162 61.6068 50.0741 80.1368 66.131 78.6781C69.9148 78.3933 73.5303 76.9979 76.5242 74.6667C76.6503 74.5672 76.754 74.4422 76.8284 74.2998C76.9028 74.1575 76.9463 74.001 76.9559 73.8407C76.9656 73.6803 76.9413 73.5197 76.8846 73.3695C76.8279 73.2192 76.74 73.0826 76.6268 72.9687ZM67.9544 76.1254C53.1396 79.0997 42.0285 62.5641 50.3704 49.9145L74.0627 73.6296C72.2035 74.8418 70.1305 75.6887 67.9544 76.1254Z" fill="#011320"/>
<path d="M74.0627 73.6296C70.9376 75.6943 67.221 76.6754 63.484 76.4221C59.7471 76.1689 56.1968 74.6953 53.3789 72.2279L63.0199 62.5869L74.0627 73.6296Z" fill="white"/>
<path d="M61.4701 60.98L51.7721 70.6211C49.3181 67.8077 47.8526 64.2683 47.5995 60.5436C47.3464 56.8189 48.3196 53.1138 50.3704 49.9943L61.4701 60.98Z" fill="white"/>
<path d="M78.3362 45.6638C74.9987 42.33 70.5594 40.3286 65.8513 40.0348C61.1431 39.7411 56.4895 41.1753 52.7635 44.0684C52.6366 44.167 52.532 44.2914 52.4566 44.4333C52.3812 44.5752 52.3366 44.7315 52.3259 44.8918C52.3151 45.0522 52.3384 45.213 52.3942 45.3637C52.45 45.5145 52.537 45.6517 52.6496 45.7664C80.3419 73.4587 78.3476 71.6467 79.0427 71.6467C79.2168 71.6463 79.3884 71.606 79.5445 71.529C79.7005 71.4519 79.8369 71.3402 79.943 71.2023C82.8252 67.4775 84.2518 62.8304 83.9561 58.13C83.6603 53.4296 81.6625 48.998 78.3362 45.6638V45.6638ZM78.906 68.7977L55.2137 45.1054C58.501 42.9266 62.4406 41.9515 66.3647 42.3454C70.2889 42.7393 73.9561 44.4779 76.7448 47.2666C79.5335 50.0553 81.2721 53.7226 81.666 57.6467C82.0599 61.5708 81.0848 65.5104 78.906 68.7977V68.7977Z" fill="#011320"/>
<path d="M78.906 68.7977L55.2137 45.1054C58.501 42.9266 62.4406 41.9515 66.3647 42.3454C70.2888 42.7393 73.956 44.4779 76.7448 47.2666C79.5335 50.0553 81.2721 53.7226 81.666 57.6467C82.0599 61.5708 81.0848 65.5104 78.906 68.7977V68.7977Z" fill="white"/>
<path d="M82.359 72.2621C49.3105 39.2137 51.2251 40.6154 49.3105 40.6382C48.6329 40.6342 47.9693 40.8318 47.4041 41.2058C46.839 41.5797 46.3977 42.1132 46.1363 42.7385C45.875 43.3638 45.8054 44.0526 45.9363 44.7175C46.0673 45.3824 46.3929 45.9934 46.8718 46.4729C80.0228 79.6239 77.9031 78.0855 79.9316 78.0855C80.606 78.0849 81.2651 77.8849 81.8261 77.5106C82.3871 77.1363 82.8249 76.6045 83.0843 75.982C83.3438 75.3596 83.4133 74.6743 83.2843 74.0124C83.1552 73.3505 82.8333 72.7415 82.359 72.2621ZM79.1453 75.4758C75.2137 71.567 52.433 48.7863 48.5242 44.8547C48.3667 44.694 48.2603 44.4903 48.2184 44.2693C48.1765 44.0482 48.2009 43.8197 48.2887 43.6125C48.3764 43.4053 48.5235 43.2288 48.7115 43.1051C48.8994 42.9814 49.1197 42.9161 49.3447 42.9174C50.0741 42.9744 47.7949 40.8775 78.2336 71.3504C80.9914 74.1083 81.0826 74.0513 81.0826 74.6781C81.0795 74.9011 81.011 75.1183 80.8855 75.3028C80.7601 75.4873 80.5833 75.6309 80.377 75.7158C80.1708 75.8008 79.9441 75.8233 79.7251 75.7806C79.5062 75.7379 79.3046 75.632 79.1453 75.4758Z" fill="#011320"/>
<path d="M24.5812 67.2365L46.2336 54.7009C46.4241 54.5905 46.6425 54.5377 46.8623 54.5489C47.0821 54.56 47.294 54.6345 47.4724 54.7635C47.6508 54.8925 47.788 55.0703 47.8675 55.2756C47.947 55.4809 47.9653 55.7048 47.9202 55.9202C47.9202 56.5356 48.8547 55.8063 25.755 69.1966C25.492 69.3477 25.1798 69.3882 24.887 69.3091C24.5942 69.23 24.3449 69.0379 24.1937 68.7749C24.0426 68.512 24.0021 68.1998 24.0812 67.907C24.1603 67.6142 24.3524 67.3648 24.6154 67.2137" fill="#011320"/>
<path d="M63.8291 61.7778L34.8262 90.792C34.72 90.8983 34.5938 90.9826 34.455 91.0401C34.3162 91.0976 34.1674 91.1272 34.0171 91.1272C33.8668 91.1272 33.718 91.0976 33.5792 91.0401C33.4404 90.9826 33.3142 90.8983 33.208 90.792C33.1017 90.6858 33.0174 90.5596 32.9599 90.4208C32.9024 90.282 32.8728 90.1332 32.8728 89.9829C32.8728 89.8326 32.9024 89.6838 32.9599 89.545C33.0174 89.4062 33.1017 89.28 33.208 89.1738L62.2222 60.1709C62.4402 59.9842 62.7207 59.8867 63.0075 59.8978C63.2943 59.9088 63.5664 60.0277 63.7693 60.2307C63.9723 60.4337 64.0912 60.7057 64.1022 60.9925C64.1133 61.2793 64.0158 61.5598 63.8291 61.7778V61.7778Z" fill="#011320"/>
<path d="M69.2764 77.8006L56.7407 99.453C56.5896 99.7159 56.3402 99.9081 56.0474 99.9872C55.7547 100.066 55.4424 100.026 55.1795 99.8746C54.9165 99.7235 54.7244 99.4741 54.6453 99.1813C54.5662 98.8885 54.6067 98.5763 54.7578 98.3134C67.6239 76.1026 67.5328 75.4758 68.8547 76.2051C68.9899 76.2795 69.1086 76.3805 69.2036 76.5021C69.2986 76.6237 69.3679 76.7633 69.4073 76.9125C69.4468 77.0617 69.4555 77.2173 69.433 77.37C69.4105 77.5226 69.3572 77.6691 69.2764 77.8006V77.8006Z" fill="#011320"/>
</g>
<defs>
<clipPath id="clip0">
<rect width="126" height="127" fill="white"/>
</clipPath>
<clipPath id="clip1">
<rect width="60" height="60" fill="white" transform="translate(24 40)"/>
</clipPath>
</defs>
</svg>
