<svg width="22" height="22" viewBox="0 0 22 22" fill="none" xmlns="http://www.w3.org/2000/svg">
<path d="M11 15C13.2091 15 15 13.2091 15 11C15 8.79086 13.2091 7 11 7C8.79086 7 7 8.79086 7 11C7 13.2091 8.79086 15 11 15Z" fill="url(#paint0_linear)"/>
<path d="M11 4C10.7348 4 10.4804 3.89464 10.2929 3.70711C10.1054 3.51957 10 3.26522 10 3V1C10 0.734784 10.1054 0.48043 10.2929 0.292893C10.4804 0.105357 10.7348 0 11 0C11.2652 0 11.5196 0.105357 11.7071 0.292893C11.8946 0.48043 12 0.734784 12 1V3C12 3.26522 11.8946 3.51957 11.7071 3.70711C11.5196 3.89464 11.2652 4 11 4Z" fill="url(#paint1_linear)"/>
<path d="M11 22C10.7348 22 10.4804 21.8946 10.2929 21.7071C10.1054 21.5196 10 21.2652 10 21V19C10 18.7348 10.1054 18.4804 10.2929 18.2929C10.4804 18.1054 10.7348 18 11 18C11.2652 18 11.5196 18.1054 11.7071 18.2929C11.8946 18.4804 12 18.7348 12 19V21C12 21.2652 11.8946 21.5196 11.7071 21.7071C11.5196 21.8946 11.2652 22 11 22Z" fill="url(#paint2_linear)"/>
<path d="M3 12H1C0.734784 12 0.48043 11.8946 0.292893 11.7071C0.105357 11.5196 0 11.2652 0 11C0 10.7348 0.105357 10.4804 0.292893 10.2929C0.48043 10.1054 0.734784 10 1 10H3C3.26522 10 3.51957 10.1054 3.70711 10.2929C3.89464 10.4804 4 10.7348 4 11C4 11.2652 3.89464 11.5196 3.70711 11.7071C3.51957 11.8946 3.26522 12 3 12Z" fill="url(#paint3_linear)"/>
<path d="M21 12H19C18.7348 12 18.4804 11.8946 18.2929 11.7071C18.1054 11.5196 18 11.2652 18 11C18 10.7348 18.1054 10.4804 18.2929 10.2929C18.4804 10.1054 18.7348 10 19 10H21C21.2652 10 21.5196 10.1054 21.7071 10.2929C21.8946 10.4804 22 10.7348 22 11C22 11.2652 21.8946 11.5196 21.7071 11.7071C21.5196 11.8946 21.2652 12 21 12Z" fill="url(#paint4_linear)"/>
<path d="M3.93 19.07C3.79839 19.0707 3.66793 19.0455 3.54609 18.9958C3.42426 18.946 3.31344 18.8727 3.22 18.78C3.12627 18.687 3.05188 18.5764 3.00111 18.4546C2.95034 18.3327 2.9242 18.202 2.9242 18.07C2.9242 17.938 2.95034 17.8073 3.00111 17.6854C3.05188 17.5635 3.12627 17.4529 3.22 17.36L4.64 16C4.8313 15.8362 5.07738 15.7505 5.32905 15.7603C5.58073 15.77 5.81947 15.8743 5.99756 16.0524C6.17566 16.2305 6.27999 16.4693 6.28971 16.7209C6.29943 16.9726 6.21383 17.2187 6.05 17.41L4.64 18.78C4.54656 18.8727 4.43574 18.946 4.31391 18.9958C4.19207 19.0455 4.06161 19.0707 3.93 19.07Z" fill="url(#paint5_linear)"/>
<path d="M16.66 6.34012C16.5284 6.34088 16.3979 6.31565 16.2761 6.26589C16.1543 6.21612 16.0434 6.1428 15.95 6.05012C15.7638 5.86276 15.6592 5.6093 15.6592 5.34512C15.6592 5.08093 15.7638 4.82748 15.95 4.64012L17.36 3.22012C17.4532 3.12688 17.5639 3.05292 17.6858 3.00246C17.8076 2.952 17.9381 2.92603 18.07 2.92603C18.2019 2.92603 18.3324 2.952 18.4543 3.00246C18.5761 3.05292 18.6868 3.12688 18.78 3.22012C18.8732 3.31336 18.9472 3.42405 18.9977 3.54587C19.0481 3.66769 19.0741 3.79826 19.0741 3.93012C19.0741 4.06198 19.0481 4.19254 18.9977 4.31437C18.9472 4.43619 18.8732 4.54688 18.78 4.64012L17.36 6.05012C17.1737 6.23486 16.9223 6.33901 16.66 6.34012Z" fill="url(#paint6_linear)"/>
<path d="M18.07 19.0701C17.9384 19.0709 17.8079 19.0457 17.6861 18.9959C17.5643 18.9461 17.4534 18.8728 17.36 18.7801L16 17.3601C15.8943 17.1701 15.8534 16.9509 15.8835 16.7356C15.9136 16.5203 16.0131 16.3206 16.1668 16.1669C16.3205 16.0132 16.5202 15.9138 16.7355 15.8837C16.9508 15.8536 17.17 15.8944 17.36 16.0001L18.78 17.4101C18.8737 17.5031 18.9481 17.6137 18.9989 17.7355C19.0497 17.8574 19.0758 17.9881 19.0758 18.1201C19.0758 18.2521 19.0497 18.3828 18.9989 18.5047C18.9481 18.6266 18.8737 18.7372 18.78 18.8301C18.5834 18.9991 18.3288 19.0852 18.07 19.0701Z" fill="url(#paint7_linear)"/>
<path d="M5.34 6.34012C5.07766 6.33901 4.82626 6.23486 4.64 6.05012L3.22 4.64012C3.12676 4.54688 3.0528 4.43619 3.00234 4.31437C2.95188 4.19254 2.92591 4.06198 2.92591 3.93012C2.92591 3.79826 2.95188 3.66769 3.00234 3.54587C3.0528 3.42405 3.12676 3.31336 3.22 3.22012C3.31324 3.12688 3.42393 3.05292 3.54575 3.00246C3.66758 2.952 3.79814 2.92603 3.93 2.92603C4.06186 2.92603 4.19243 2.952 4.31425 3.00246C4.43607 3.05292 4.54676 3.12688 4.64 3.22012L6.05 4.64012C6.23625 4.82748 6.3408 5.08093 6.3408 5.34512C6.3408 5.6093 6.23625 5.86276 6.05 6.05012C5.95656 6.1428 5.84575 6.21612 5.72391 6.26589C5.60207 6.31565 5.47161 6.34088 5.34 6.34012Z" fill="url(#paint8_linear)"/>
<path d="M13.83 8.16992L8.17 13.8299C8.92056 14.5805 9.93854 15.0021 11 15.0021C11.5256 15.0021 12.046 14.8986 12.5316 14.6975C13.0172 14.4964 13.4584 14.2016 13.83 13.8299C14.2016 13.4583 14.4964 13.0171 14.6976 12.5315C14.8987 12.0459 15.0022 11.5255 15.0022 10.9999C15.0022 10.4743 14.8987 9.95391 14.6976 9.46834C14.4964 8.98276 14.2016 8.54156 13.83 8.16992Z" fill="url(#paint9_linear)"/>
<defs>
<linearGradient id="paint0_linear" x1="7.81" y1="7.47" x2="14.06" y2="14.38" gradientUnits="userSpaceOnUse">
<stop stop-color="#FFCA4F"/>
<stop offset="1" stop-color="#F7AE30"/>
</linearGradient>
<linearGradient id="paint1_linear" x1="36" y1="23.76" x2="36" y2="38.88" gradientUnits="userSpaceOnUse">
<stop stop-color="#FFCA4F"/>
<stop offset="1" stop-color="#F7AE30"/>
</linearGradient>
<linearGradient id="paint2_linear" x1="36" y1="129.76" x2="36" y2="114.12" gradientUnits="userSpaceOnUse">
<stop stop-color="#FFCA4F"/>
<stop offset="1" stop-color="#F7AE30"/>
</linearGradient>
<linearGradient id="paint3_linear" x1="8" y1="44" x2="24" y2="44" gradientUnits="userSpaceOnUse">
<stop stop-color="#FFCA4F"/>
<stop offset="1" stop-color="#F7AE30"/>
</linearGradient>
<linearGradient id="paint4_linear" x1="18" y1="11" x2="22" y2="11" gradientUnits="userSpaceOnUse">
<stop stop-color="#F7AE30"/>
<stop offset="1" stop-color="#FFCA4F"/>
</linearGradient>
<linearGradient id="paint5_linear" x1="20.3951" y1="97.7269" x2="29.6356" y2="88.6674" gradientUnits="userSpaceOnUse">
<stop stop-color="#FFCA4F"/>
<stop offset="1" stop-color="#F7AE30"/>
</linearGradient>
<linearGradient id="paint6_linear" x1="86.4839" y1="34.4724" x2="77.0951" y2="43.9657" gradientUnits="userSpaceOnUse">
<stop stop-color="#FFCA4F"/>
<stop offset="1" stop-color="#F7AE30"/>
</linearGradient>
<linearGradient id="paint7_linear" x1="81.8329" y1="94.5076" x2="73.5505" y2="86.2786" gradientUnits="userSpaceOnUse">
<stop stop-color="#FFCA4F"/>
<stop offset="1" stop-color="#F7AE30"/>
</linearGradient>
<linearGradient id="paint8_linear" x1="20.8882" y1="34.2334" x2="30.6183" y2="44.6145" gradientUnits="userSpaceOnUse">
<stop stop-color="#FFCA4F"/>
<stop offset="1" stop-color="#F7AE30"/>
</linearGradient>
<linearGradient id="paint9_linear" x1="11.16" y1="11.1699" x2="14.3" y2="14.4999" gradientUnits="userSpaceOnUse">
<stop stop-color="#FFCA4F" stop-opacity="0"/>
<stop offset="1" stop-color="#F4901F"/>
</linearGradient>
</defs>
</svg>
