<svg width="153" height="23" viewBox="0 0 153 23" fill="none" xmlns="http://www.w3.org/2000/svg">
<path d="M32.046 11.394C32.838 10.908 33.396 9.882 33.396 8.766C33.396 6.912 31.938 5.58 30.066 5.58H25.188V18H30.516C32.532 18 34.026 16.596 34.026 14.634C34.026 13.158 33.198 11.844 32.046 11.394ZM29.382 8.1C30.03 8.1 30.534 8.586 30.534 9.27C30.534 9.936 30.012 10.44 29.382 10.44H27.888V8.1H29.382ZM29.832 15.48H27.888V12.798H29.832C30.588 12.798 31.164 13.392 31.164 14.148C31.164 14.904 30.588 15.48 29.832 15.48ZM40.5815 8.82H35.3975V18H38.0255V11.412H40.5815V8.82ZM49.353 15.606V8.82H41.937V11.232H46.725V12.24H44.493C42.657 12.24 41.271 13.518 41.271 15.228C41.271 16.92 42.657 18.216 44.493 18.216C45.555 18.216 46.473 17.802 47.049 17.136V18H50.379V15.606H49.353ZM45.195 16.2C44.511 16.2 43.971 15.75 43.971 15.174C43.971 14.58 44.511 14.148 45.195 14.148H46.725V15.102C46.725 15.75 46.095 16.2 45.195 16.2ZM60.515 8.82H51.587V18H54.215V11.358H57.887V18H60.515V8.82ZM69.3045 5.04V9.828C68.6205 9.072 67.6665 8.604 66.5325 8.604C64.0125 8.604 62.1045 10.674 62.1045 13.41C62.1045 16.146 64.0125 18.216 66.5325 18.216C67.6665 18.216 68.6205 17.748 69.3045 16.992V18H71.9325V5.04H69.3045ZM67.0545 15.678C65.7765 15.678 64.8225 14.706 64.8225 13.41C64.8225 12.114 65.7765 11.142 67.0545 11.142C68.3505 11.142 69.3045 12.114 69.3045 13.41C69.3045 14.706 68.3505 15.678 67.0545 15.678ZM78.4267 18.216C81.2527 18.216 83.3767 16.146 83.3767 13.41C83.3767 10.674 81.2527 8.604 78.4267 8.604C75.6007 8.604 73.4767 10.674 73.4767 13.41C73.4767 16.146 75.6007 18.216 78.4267 18.216ZM78.4267 15.678C77.1307 15.678 76.1767 14.706 76.1767 13.41C76.1767 12.114 77.1307 11.142 78.4267 11.142C79.7227 11.142 80.6767 12.114 80.6767 13.41C80.6767 14.706 79.7227 15.678 78.4267 15.678ZM93.8607 8.82H84.9327V18H87.5607V11.358H91.2327V18H93.8607V8.82ZM106.911 11.394C107.703 10.908 108.261 9.882 108.261 8.766C108.261 6.912 106.803 5.58 104.931 5.58H100.053V18H105.381C107.397 18 108.891 16.596 108.891 14.634C108.891 13.158 108.063 11.844 106.911 11.394ZM104.247 8.1C104.895 8.1 105.399 8.586 105.399 9.27C105.399 9.936 104.877 10.44 104.247 10.44H102.753V8.1H104.247ZM104.697 15.48H102.753V12.798H104.697C105.453 12.798 106.029 13.392 106.029 14.148C106.029 14.904 105.453 15.48 104.697 15.48ZM115.447 8.82H110.263V18H112.891V11.412H115.447V8.82ZM120.983 18.216C123.809 18.216 125.933 16.146 125.933 13.41C125.933 10.674 123.809 8.604 120.983 8.604C118.157 8.604 116.033 10.674 116.033 13.41C116.033 16.146 118.157 18.216 120.983 18.216ZM120.983 15.678C119.687 15.678 118.733 14.706 118.733 13.41C118.733 12.114 119.687 11.142 120.983 11.142C122.279 11.142 123.233 12.114 123.233 13.41C123.233 14.706 122.279 15.678 120.983 15.678ZM138.662 8.82L136.97 14.598L135.188 8.82H132.506L130.706 14.634L129.014 8.82H126.026L129.302 18H132.002L133.82 12.006L135.62 18H138.32L141.596 8.82H138.662ZM151.64 8.82H142.712V18H145.34V11.358H149.012V18H151.64V8.82Z" fill="white"/>
<path d="M12.1666 7.7587H4.83331V10.3185H12.1666V7.7587Z" fill="#D92D27"/>
<path d="M12.1666 12.5174H4.83331V15.0772H12.1666V12.5174Z" fill="#D92D27"/>
<path d="M9.66666 3V5.55985H14.3833V17.4402H9.66666V20H17V17.9817V17.4402V5.55985V4.57529V3H9.66666Z" fill="#D92D27"/>
<path d="M2.6 5.55985H7.33333V3H0V4.57529V5.55985V17.4402V17.9817V20H7.33333V17.4402H2.6V5.55985Z" fill="#D92D27"/>
</svg>
