<svg width="256" height="55" viewBox="0 0 256 55" fill="none" xmlns="http://www.w3.org/2000/svg">
<path d="M70.664 41V16.52H79.124L83.444 34.376L87.764 16.52H96.224V41H91.256V22.064H90.716L85.928 39.92H80.96L76.172 22.064H75.632V41H70.664ZM101.566 41V16.52H106.534V41H101.566ZM111.867 41V16.52H120.255L126.159 36.68H126.519V16.52H131.487V41H123.315L117.195 20.84H116.835V41H111.867ZM136.828 41V16.52H145.288L149.608 34.376L153.928 16.52H162.388V41H157.42V22.064H156.88L152.092 39.92H147.124L142.336 22.064H141.796V41H136.828ZM165.678 41L171.186 16.52H180.618L186.126 41H181.158L180.186 36.572H171.618L170.646 41H165.678ZM175.038 20.624L172.554 32.252H179.25L176.766 20.624H175.038ZM192.555 16.52L197.091 25.52L201.735 16.52H206.883L199.827 29.012L206.883 41H201.375L196.839 32.54L192.195 41H187.047L194.103 29.264L187.047 16.52H192.555ZM209.883 41V16.52H225.507V20.84H214.851V28.04H223.563V32.36H214.851V41H209.883ZM229.008 41V16.52H233.976V41H229.008ZM237.113 20.912V16.52H255.113V20.912H248.633V41H243.665V20.912H237.113Z" fill="white" class="styles"/>
<g clip-path="url(#clip0_200_368)">
<path d="M5.64116 26.2155C11.029 22.766 17.9986 18.7091 24.6469 15.0227C24.6442 14.4155 24.8124 13.8193 25.133 13.3002C25.4536 12.7811 25.9141 12.3592 26.4635 12.0814C27.0128 11.8035 27.6297 11.6805 28.2458 11.7258C28.8619 11.7712 29.4532 11.9832 29.9544 12.3384C29.6595 11.9839 29.2926 11.6938 28.8771 11.4866C28.4616 11.2794 28.0068 11.1596 27.5416 11.1351C27.0763 11.1105 26.611 11.1816 26.1754 11.3438C25.7397 11.5061 25.3433 11.7559 25.0114 12.0772L17.6773 8.10544C17.767 8.39692 17.8127 8.69973 17.8132 9.00425C17.8141 9.53664 17.6746 10.0602 17.4082 10.5238C17.1419 10.9873 16.7577 11.3751 16.2934 11.6492C15.829 11.9233 15.3003 12.0743 14.7588 12.0876C14.2173 12.1009 13.6816 11.976 13.2039 11.725C10.4914 13.3344 7.9211 14.9012 5.64116 16.3649V24.7458C2.7001 26.6406 0 28.9059 0 29.9201C1.61264 28.7055 3.17586 27.7702 5.64116 26.1972V26.2155Z" fill="url(#paint0_linear_200_368)"/>
<path d="M13.0989 9.00425C13.0977 9.31226 13.1895 9.61369 13.3629 9.87029C13.5362 10.1269 13.7832 10.3271 14.0725 10.4455C14.3617 10.564 14.6803 10.5953 14.9877 10.5355C15.2951 10.4757 15.5775 10.3275 15.7991 10.1097C16.0207 9.89187 16.1714 9.61428 16.2323 9.31213C16.2931 9.00998 16.2613 8.69687 16.1408 8.41254C16.0203 8.12821 15.8166 7.88545 15.5555 7.71508C15.2945 7.54471 14.9878 7.45441 14.6745 7.45561C14.2571 7.45721 13.8573 7.62086 13.5622 7.91094C13.267 8.20103 13.1005 8.59401 13.0989 9.00425Z" fill="#F39F37"/>
<path d="M5.64116 12.9093C7.45152 11.7493 9.44724 10.5165 11.548 9.26541C11.5057 8.66424 11.643 8.06401 11.9431 7.53855C12.2433 7.01309 12.6932 6.58534 13.2374 6.30788C13.7816 6.03041 14.3965 5.91533 15.0064 5.97683C15.6163 6.03832 16.1946 6.27368 16.6702 6.65397C16.2594 6.12796 15.688 5.7451 15.0398 5.56149C14.3915 5.37788 13.7005 5.40318 13.068 5.63369L10.8992 4.46159C8.48954 3.15586 5.64116 4.97173 5.64116 7.80788V11.4882C2.70009 13.3769 0 15.6483 0 16.6625C1.61264 15.4478 3.17586 14.5126 5.64116 12.9336V12.9093Z" fill="url(#paint1_linear_200_368)"/>
<path d="M50.0598 25.6446L44.3631 22.5594C44.1147 22.9762 43.7813 23.3379 43.3837 23.6218C42.9861 23.9056 42.5331 24.1055 42.053 24.2087C41.573 24.312 41.0764 24.3164 40.5946 24.2218C40.1127 24.1271 39.656 23.9354 39.2533 23.6587C30.6031 28.0738 15.4776 36.4122 5.64111 42.6858V50.1132C5.64111 52.8886 8.30414 54.9717 10.8992 53.5749L50.0598 32.3432C50.6515 31.9987 51.1417 31.5087 51.4823 30.9214C51.8228 30.3342 52.0018 29.6699 52.0018 28.9939C52.0018 28.3179 51.8228 27.6537 51.4823 27.0664C51.1417 26.4791 50.6515 25.9891 50.0598 25.6446Z" fill="url(#paint2_linear_200_368)"/>
<path d="M41.3045 18.9703C40.9379 18.9703 40.5796 19.0771 40.2747 19.2773C39.9699 19.4775 39.7323 19.7621 39.592 20.095C39.4517 20.4279 39.415 20.7942 39.4865 21.1477C39.5581 21.5011 39.7346 21.8257 39.9938 22.0805C40.2531 22.3353 40.5834 22.5088 40.9429 22.5791C41.3025 22.6494 41.6752 22.6133 42.0139 22.4754C42.3526 22.3375 42.6421 22.104 42.8458 21.8044C43.0494 21.5048 43.1582 21.1526 43.1582 20.7922C43.1582 20.309 42.9629 19.8456 42.6152 19.5039C42.2676 19.1622 41.7962 18.9703 41.3045 18.9703Z" fill="#F39F37"/>
<path d="M26.2779 14.9984C26.2743 15.3319 26.3715 15.6589 26.5573 15.9379C26.7431 16.217 27.0091 16.4354 27.3215 16.5655C27.6339 16.6957 27.9786 16.7316 28.3118 16.6687C28.645 16.6059 28.9517 16.4472 29.1929 16.2126C29.4342 15.9781 29.599 15.6784 29.6666 15.3516C29.7341 15.0248 29.7013 14.6856 29.5724 14.3772C29.4434 14.0687 29.224 13.8049 28.9422 13.6192C28.6604 13.4335 28.3287 13.3344 27.9894 13.3344C27.5387 13.3344 27.1062 13.5091 26.7857 13.8206C26.4653 14.1322 26.2828 14.5554 26.2779 14.9984Z" fill="#F39F37"/>
<path d="M37.752 20.9501C37.7257 20.356 37.8537 19.7652 38.1238 19.2332C38.3939 18.7012 38.7973 18.2455 39.296 17.9089C39.7948 17.5724 40.3724 17.3662 40.9746 17.3096C41.5768 17.253 42.1837 17.348 42.7382 17.5856C42.3214 17.2682 41.8381 17.0459 41.3231 16.9346C40.8082 16.8234 40.2745 16.8259 39.7607 16.9422C39.2469 17.0584 38.7658 17.2854 38.3522 17.6067C37.9385 17.928 37.6027 18.3357 37.3689 18.8002L31.3014 15.5146C31.2169 16.0699 30.9893 16.5946 30.6403 17.039C30.2913 17.4833 29.8324 17.8326 29.3073 18.0535C28.7823 18.2744 28.2084 18.3597 27.6404 18.3012C27.0723 18.2427 26.529 18.0423 26.0619 17.7192C19.0244 21.612 11.4184 26.0029 5.67216 29.7014V37.7848C2.7311 39.6796 0.0310059 41.9448 0.0310059 42.9651C1.64365 41.7505 3.20686 40.8153 5.67216 39.2363C14.934 33.2603 28.9474 25.511 37.752 20.9501Z" fill="url(#paint3_linear_200_368)"/>
<path fill-rule="evenodd" clip-rule="evenodd" d="M49.1826 30.7764L10.0219 51.9898C8.7244 52.6882 7.45776 51.5404 7.45776 50.2043V41.5137C17.2634 35.3859 31.1222 27.7823 39.2534 23.6587C39.7904 24.0284 40.4211 24.2445 41.0756 24.2831C41.73 24.3217 42.3825 24.1812 42.9606 23.8773L49.1393 27.2297C49.4426 27.4179 49.6932 27.6777 49.8682 27.9854C50.0433 28.2931 50.1372 28.639 50.1415 28.9915C50.1458 29.344 50.0603 29.692 49.8929 30.0037C49.7254 30.3155 49.4812 30.5811 49.1826 30.7764ZM26.0618 17.6888C19.741 21.1869 12.9568 25.0859 7.45776 28.5172V38.052C16.664 32.3008 29.4416 25.2499 37.6902 20.9744L30.5538 17.1119C30.0138 17.7423 29.2532 18.1512 28.4218 18.258C27.5904 18.3648 26.7485 18.1617 26.0618 17.6888ZM13.204 11.725C11.1897 12.9396 9.25577 14.0935 7.45776 15.217V25.0677C12.549 21.8853 18.7339 18.3083 24.6469 15.0227C24.6405 14.6746 24.6927 14.3278 24.8014 13.9964L17.6094 10.1035C17.4504 10.5118 17.205 10.8823 16.8894 11.1904C16.5737 11.4984 16.1951 11.737 15.7785 11.8904C15.362 12.0437 14.917 12.1082 14.4732 12.0797C14.0293 12.0512 13.5967 11.9303 13.204 11.725ZM10.0219 5.99805C8.7244 5.29357 7.45776 6.44138 7.45776 7.77747V11.7614C8.75529 10.9476 10.127 10.1095 11.5481 9.25931C11.4813 8.50776 11.7016 7.75871 12.1659 7.15804L10.0219 5.99805Z" fill="url(#paint4_linear_200_368)"/>
<path fill-rule="evenodd" clip-rule="evenodd" d="M7.45776 41.5137C10.0466 39.8982 12.9197 38.1734 15.8979 36.4426C13.5764 40.702 10.7427 44.6719 7.45776 48.267V41.5137ZM12.1598 7.15804L10.0219 5.99805C8.7244 5.29357 7.45776 6.44138 7.45776 7.77747V11.7614C8.75529 10.9476 10.127 10.1095 11.5481 9.25931C11.4795 8.50853 11.6976 7.75956 12.1598 7.15804ZM7.45776 38.0581C10.7263 36.0175 14.4397 33.8069 18.2458 31.6266C19.8642 27.8886 21.0899 23.9978 21.9036 20.0148C16.8556 22.857 11.7643 25.8329 7.45776 28.5172V38.0581ZM13.204 11.725C11.1897 12.9396 9.25577 14.0935 7.45776 15.217V25.0677C11.9497 22.2619 17.2943 19.1464 22.5462 16.1948C22.6945 15.126 22.8119 14.051 22.8984 12.97L17.6094 10.1035C17.4504 10.5118 17.205 10.8823 16.8894 11.1904C16.5738 11.4984 16.1951 11.737 15.7785 11.8904C15.362 12.0437 14.917 12.1082 14.4732 12.0797C14.0293 12.0512 13.5967 11.9303 13.204 11.725Z" fill="url(#paint5_linear_200_368)"/>
<path opacity="0.3" fill-rule="evenodd" clip-rule="evenodd" d="M8.15598 29.4646C14.0752 25.8511 20.0747 22.3226 26.1422 18.952C26.607 19.1948 27.1208 19.3333 27.6467 19.3574C28.1725 19.3815 28.6972 19.2906 29.183 19.0914C29.6688 18.8922 30.1036 18.5895 30.456 18.2052C30.8084 17.8208 31.0697 17.3645 31.2211 16.8689C31.2373 17.4755 31.0928 18.0757 30.8016 18.6107C30.5105 19.1457 30.0828 19.5971 29.5606 19.9205C29.0383 20.244 28.4395 20.4283 27.8228 20.4555C27.2062 20.4827 26.5929 20.3517 26.0433 20.0755C21.2363 22.5594 14.7734 26.0454 8.15598 29.4646ZM17.7206 10.6926C17.58 11.116 17.3523 11.5064 17.0517 11.8397C16.7511 12.1729 16.3839 12.4419 15.9731 12.6298C15.5623 12.8178 15.1166 12.9207 14.6636 12.9322C14.2106 12.9437 13.7601 12.8636 13.3399 12.6967C11.1897 13.9721 9.04778 15.2616 6.91406 16.5653C9.02718 15.4661 11.1527 14.4944 13.1855 13.4194C13.6656 13.5889 14.1782 13.6503 14.6857 13.5991C15.1932 13.548 15.6825 13.3856 16.1177 13.124C16.5529 12.8623 16.9228 12.508 17.2002 12.0873C17.4776 11.6665 17.6554 11.1899 17.7206 10.6926ZM39.4573 24.8733C28.799 30.3816 17.8936 36.4122 7.7729 42.8133C17.387 37.0195 31.2335 30.3391 39.6365 26.0879C40.1856 26.3143 40.7836 26.402 41.376 26.3428C41.9684 26.2836 42.5363 26.0795 43.0278 25.7492C43.5193 25.4188 43.9188 24.9727 44.1899 24.4516C44.4609 23.9305 44.5949 23.351 44.5795 22.766C44.4324 23.2695 44.1721 23.7342 43.8179 24.1256C43.4637 24.5171 43.0245 24.8253 42.5328 25.0276C42.0411 25.2299 41.5095 25.3211 40.9772 25.2944C40.4449 25.2677 39.9255 25.1238 39.4573 24.8733Z" fill="black"/>
</g>
<defs>
<linearGradient id="paint0_linear_200_368" x1="-15" y1="25.5" x2="29.786" y2="14.4541" gradientUnits="userSpaceOnUse">
<stop offset="0.1" stop-color="#644699"/>
<stop offset="0.310377" stop-color="#E03E90"/>
<stop offset="0.468396" stop-color="#E13236"/>
<stop offset="0.723958" stop-color="#F08837"/>
<stop offset="0.9" stop-color="#FAC438"/>
</linearGradient>
<linearGradient id="paint1_linear_200_368" x1="-69.1811" y1="11588" x2="1766.54" y2="11588" gradientUnits="userSpaceOnUse">
<stop offset="0.1" stop-color="#644699"/>
<stop offset="0.4" stop-color="#E03E90"/>
<stop offset="0.6" stop-color="#E13236"/>
<stop offset="0.9" stop-color="#FAC438"/>
</linearGradient>
<linearGradient id="paint2_linear_200_368" x1="-186.756" y1="30322.7" x2="4918.49" y2="30322.7" gradientUnits="userSpaceOnUse">
<stop offset="0.1" stop-color="#644699"/>
<stop offset="0.4" stop-color="#E03E90"/>
<stop offset="0.6" stop-color="#E13236"/>
<stop offset="0.9" stop-color="#FAC438"/>
</linearGradient>
<linearGradient id="paint3_linear_200_368" x1="-177.204" y1="26042.4" x2="4525.72" y2="26042.4" gradientUnits="userSpaceOnUse">
<stop offset="0.1" stop-color="#644699"/>
<stop offset="0.4" stop-color="#E03E90"/>
<stop offset="0.6" stop-color="#E13236"/>
<stop offset="0.9" stop-color="#FAC438"/>
</linearGradient>
<linearGradient id="paint4_linear_200_368" x1="44.53" y1="54.7166" x2="26.9506" y2="37.2025" gradientUnits="userSpaceOnUse">
<stop stop-color="white"/>
<stop offset="1" stop-color="white" stop-opacity="0"/>
</linearGradient>
<linearGradient id="paint5_linear_200_368" x1="1557.38" y1="41424.3" x2="447.707" y2="41254" gradientUnits="userSpaceOnUse">
<stop stop-color="white"/>
<stop offset="1" stop-color="white" stop-opacity="0"/>
</linearGradient>
<clipPath id="clip0_200_368">
<rect width="52" height="50" fill="white" transform="translate(0 4)"/>
</clipPath>
</defs>
</svg>
