<svg width="116" height="101" viewBox="0 0 116 101" fill="none" xmlns="http://www.w3.org/2000/svg">
<path d="M68.2 46.9L32.2001 1.6C31.3001 0.7 29.7 0 28.5 0H3.40005C1.50005 0 0.300049 1.2 0.300049 3.1V96.5C0.300049 98.4 1.50005 99.6 3.40005 99.6L27.9 99.9C29.5 99.9 31.0001 99.3 31.9001 98L68.2 52.7C69.5 50.9 69.5 48.4 68.2 46.9Z" fill="white"/>
<path d="M114.8 46.9001L78.5002 1.90009C76.9002 9.32217e-05 74.2002 -0.599906 72.0002 1.30009L64.9002 7.20009C62.7002 8.80009 62.4002 11.9001 64.3002 13.7001L93.7002 50.0001L64.2002 86.6001C62.6002 88.5001 63.0002 91.6001 64.8002 93.1001L72.0002 99.0001C74.2002 100.6 76.7002 100.2 78.5002 98.4001L114.8 53.1001C116 50.6001 116 48.4001 114.8 46.9001Z" fill="white"/>
</svg>
